<?xml version="1.0" encoding="UTF-8"?>
<svg id="Layer_1" xmlns="http://www.w3.org/2000/svg" version="1.1" viewBox="0 0 700 700">
  <!-- Generator: Adobe Illustrator 29.5.1, SVG Export Plug-In . SVG Version: 2.1.0 Build 141)  -->
  <defs>
    <style>
      .st0 {
        fill: #705a82;
      }

      .st1 {
        fill: #f9b21c;
      }

      .st2 {
        fill: #0f0e1a;
      }

      .st3 {
        fill: #1c1231;
      }

      .st4 {
        fill: #eb9323;
      }

      .st5 {
        fill: #120f20;
      }

      .st6 {
        fill: #321e44;
      }

      .st7 {
        fill: #59446e;
      }

      .st8 {
        fill: #58436c;
      }

      .st9 {
        fill: #18112d;
      }

      .st10 {
        fill: #87749a;
      }

      .st11 {
        fill: #eb4544;
      }

      .st12 {
        fill: none;
      }

      .st13 {
        fill: #19102c;
      }

      .st14 {
        fill: #49355f;
      }

      .st15 {
        fill: #120f1d;
      }

      .st16 {
        fill: #19112d;
      }

      .st17 {
        fill: #5a456e;
      }

      .st18 {
        fill: #19102d;
      }

      .st19 {
        fill: #161028;
      }

      .st20 {
        font-size: 90px;
      }

      .st20, .st21 {
        display: none;
        font-family: CenturyGothic-Bold, 'Century Gothic';
        font-weight: 700;
      }

      .st20, .st21, .st22 {
        fill: #331f46;
      }

      .st23 {
        fill: #5b4770;
      }

      .st21 {
        font-size: 40px;
      }

      .st24 {
        fill: #857199;
      }

      .st25 {
        fill: #f26436;
      }

      .st26 {
        fill: #f15754;
      }

      .st27 {
        fill: #2b223a;
      }

      .st28 {
        fill: #5a466f;
      }

      .st29 {
        fill: #0e0c15;
      }

      .st30 {
        fill: #f26437;
      }

      .st31 {
        fill: #307aa9;
      }

      .st32 {
        fill: #abadb0;
        opacity: .57;
      }

      .st33 {
        fill: #1d1031;
      }

      .st34 {
        fill: #f5b01d;
      }

      .st35 {
        fill: #877399;
      }

      .st36 {
        fill: #fac738;
      }

      .st37 {
        fill: #261c37;
      }

      .st38 {
        fill: #f8981d;
      }

      .st39 {
        fill: #867399;
      }

      .st40 {
        fill: #321e45;
      }

      .st41 {
        fill: #fba819;
      }

      .st42 {
        fill: #331e45;
      }

      .st43 {
        fill: #86739a;
      }

      .st44 {
        fill: #57a3b5;
      }

      .st45 {
        fill: #5ebaca;
      }

      .st46 {
        fill: #f47b3c;
      }

      .st47 {
        fill: #e84347;
      }
    </style>
  </defs>
  <rect class="st12" x="-238" y="-160" width="1194" height="1194"/>
  <path class="st22" d="M231.87,97.71c23.56,1.18,47.14,2.35,70.68,3.58,20.55,1.07,41.18,1.6,61.73,2.68,23.24,1.22,47.18,3.23,70.68,4.47,28.02,1.48,56.17,3.01,84.09,4.47,43.74,2.28,87.35,3.84,131.06,6.27,2.82.16,6.8,2.32,9.4,0,11.44,2.78,16.51,16.54,18.79,26.82-1.49.92-.89,3.39-.91,4.91-.45,36.82,1.31,74.04-1.13,110.63l-3.33,8.74c-1.3,1.76-2.42,2.98-4.05,4.45-4.37,3.95-9.81,4.95-10.47,11.45l-42.65,12.8c-.79,3.62,1.35,15.89-1.6,17.86l-29.81,8.88v126.97l28.29-12.48c16.65,2.72,37.74,4.49,33.42,27.21-.7,3.7-6.81,4.61-9.82,5.84,5.81,11.82-2.13,23.26-15.58,21.36-5.63-.79-6.74-4.35-10.64-6.93l-95.35,43.76c.74,11.2-3.75,25.25-17.31,24.72-9.32-.37-22.22-4.88-19.59-16.64l-14.88-4.8c-2.75-2.73-.32-19.42-.21-23.93,2.44-3.95,4.96-6.98,9.24-9.1l47.88-21.44.1-26.65-94.4-21.26c-1.13.2-6.54,17.61-7.76,20.56-14.87,36.03-39.9,62.35-71.36,82.92-14.58,7.32-28.93,14.88-44.27,20.58-10.44,3.88-42.26,14.81-51.85,13.34-40.27-16.17-80.19-33.23-120.41-49.54-37.67-15.28-78.63-29.12-115.36-45.64-3.11-1.4-11.5-5.2-5.14-8.69,3.92-2.15,17.47-2.66,23.05-3.79,25.19-5.1,51.19-15.45,71.54-30.87-4.11-.54-15.65-2.31-17.43-6.28-.83-1.85-.78-12.27-.48-14.76.58-4.8,3.69-7.97,7.73-10.15,6.41-3.46,44.53-15.16,45.82-17.24l1.04-14.16c.03,4.76-.03,9.54,0,14.3h.89s0-111.31,0-111.31c-2.04-1.55-7.6-3.17-9.84-1.34-4.56-2.21-2.06-11.72-2.69-16.09-1.39-1.33-32.54-2.72-38.3-4.19-6.06-1.55-11.94-8.2-14.48-13.7l-1.82-12.04c1.16-15.88-1.43-33.61,0-49.25.37-4.05,2.21-6.45,2.72-10.25,4.16-7.53,13.11-16.72,19.22-23.26,12.44-13.31,31.4-33.33,46.98-42.01.54,1.8,2.67,0,3.59-.44,16-7.46,30.54-4.85,47.89-4.07,12.32.55,24.88,2.11,37.09,2.72ZM82.46,181.76c-.57,9.96-1.34,37.2,1.37,45.58,4.06,12.53,10.82,12.85,22.35,14.33,7.01.9,14.81.97,21.91,1.79-1.71-3.51-.07-6.05.04-9.35.54-15.93-.7-32.15-.94-47.87-.02-1.31,2-8.75.9-9.84-8.73-1.15-21.53-.42-29.75-2.9-5.22-1.57-6.07-5.97-.16-6.88,9.64-1.48,22.62,2.65,32.64,2.14l49.16-53.6,14.31-12.07c-14.94.27-29.2-4.03-43.28,2.78-16.71,8.08-47.75,41.1-60.06,56.21-5.85,7.18-7.94,10.02-8.49,19.68ZM525.3,120.97c-104.62-5.56-208.99-10.89-313.6-17.05-10.37.67-22.17,15.29-29.04,22.4l77.38,4.49c80.44,6.57,161.17,10.53,241.62,16.91,1.53-.02,2.16-1.24,3.06-2.18,3.98-4.18,7.57-11.6,12.07-16.54,2.64-2.9,5.73-5.3,8.51-8.03ZM631.76,126.33c-25.83-.69-51.56-3.05-77.38-3.59-1.93-.04-3.94-.92-6.25-.95-22.01-.29-33.25,27.58-43.04,42.91-3.92,6.15-8.51,11.85-12.37,18.03-2.05,3.28-14.97,23.88-13.05,25.85,26.99,2.21,54.09,5.28,80.97,8.96,7.19-.02,12.33-8.26,16.02-13.5,18.18-25.91,30.64-56.85,55.1-77.7ZM579.88,292.63c4.16-1.09,8.58-1.79,12.71-2.93,17.57-4.88,46.06-11.03,61.7-17.91,6.52-2.87,13.48-9.79,14.2-17.11,3.25-33.23-2.52-71.75-.05-105.54-4.37-26.77-27.29-22.28-41.6-5.83-17.49,20.1-29.6,49.89-45.57,71.59-1.52,13.1-.69,25.93-.83,39-.14,12.87-1.06,25.84-.56,38.74ZM186.24,136.16c-4.12-.26-8.2-1.25-12.34-.7-3.67,6.17-9.78,11.25-14.05,16.79-.69.9-1.73,1.14-1.33,2.68,15.93,1.24,31.93,2.18,47.85,3.59,89.58,7.9,179.58,18.54,269.29,24.13,1.89.12,4.88.54,6.27-.87l14.75-24.14-160.14-11.63c1.29-.03,5.18.77,5.36-.89l-74.69-4.49c-21.36-2.49-42.93-3.16-64.41-4.47-5.05-.31-11.48-2.35-16.56,0ZM158.51,164.77v14.31l309.98,32.2c1.43-6.42,3.91-12.42,6.73-18.33l-316.71-28.17ZM137.04,224.68c1.65.28,1.94,0,3.07-.96,1.51-1.28,6.68-7.29,7.23-8.92.48-1.44-.46-2.57-.36-3.88.93-11.82-.32-24.73-.18-36.76.03-2.94,1.78-5.33.08-8.5l-8.69,9.16c.31,1.66-1.14,4.76-1.14,5.59v44.26ZM184.45,203.22c-20-3.61-31.51,17.33-41.15,31.28l18.77,1.8c4.07-13.1,10.5-22.74,21.25-31.04.74-.57,1.64.02,1.13-2.04ZM172.82,232.72c-.78-2.2-1.39.87-1.64,1.48-9.26,22.85-10,39.06-9.1,63.38.06,1.72-.91,3.58,1.79,3.09,4.12,73.53-.4,101.78-62.62,143.95-.91.62-1.46,1.57-1.79,1.79-18.53,12.36-44.52,20.44-66.2,25.04-.26,1.22.93.97,1.78,1.32,15.87,6.57,32.31,12.08,48.31,18.34,13.44,5.26,26.84,10.77,40.26,16.09,16.66,6.6,33.45,13.03,50.1,19.67,14.87,5.94,29.95,11.98,44.73,17.88,8.71,3.48,21.89,10.93,30.41,12.99,1.96.48,2.5.55,4.5.02,7.88-2.08,26.62-12.86,34.58-17.32,22.44-12.58,44.1-27.24,62.02-45.76,23.37-24.15,36.12-49.56,43.84-82.26,6.76-28.65,5.89-46.53,4.41-75.48-.04-.69-.82-1.25-.83-1.42-1.31-28.19,3.15-57.89,19.68-81.37,3.43-4.88,9.7-11.89,14.3-15.66,3.42-2.8,7.68-4.5,10.75-7.58l-34.89-3.59c-22.8-4.02-46.6-5.33-69.78-8.05-23.2-2.72-46.51-5.46-69.78-8.05-17.76-1.98-38.62-6.26-56.36-7.15-17.03-.86-31.78,14.15-38.47,28.61ZM570.04,223.78c-5.34,2.71-10.62,3.04-16.54,2.67l-74.15-8.87c-1.09.38-1.26,1.16-1.45,2.18-1.34,7.31.24,21.25.03,29.54-.06,2.35-.92,4.52-.97,7.07-.18,9.09.22,18.22.05,27.31l79.13,10.77c3.6,1.72,13.91-3.28,13.91-6.74v-63.93ZM415.26,278.32l-.88-.89c-14.54,33.17-3.55,67.43-5.34,101.52-.72,13.77-3.8,27.38-6.61,40.8-.27,1.31-1.4,3.45.31,4.32-15.17,56.41-58.45,97.6-109.14,123.4-.18,1.68,1.82.75,2.7.46,27.15-8.92,60-28.38,79.63-49.18,27.36-28.99,44.39-72.9,46.53-112.65,1.8-33.48-8.22-66.06,1.31-98.84,4.79-16.5,18.24-36.04,33.53-44.28,2.08-1.12,10.66-3.99,10.81-4.55.27-1.02-.25-2.72-.06-3.92-27.11,2.02-42.17,20.9-52.78,43.81ZM468,266.74l-18.62-2.6c-4.31,7.61-5.38,15.62-7.29,24.01l25.94,4.47c-1.44-8.71.15-17.16-.04-25.88ZM534.16,307.92l-39.27-6.34.11,11.5c12.93,2.79,26.2,4.16,39.24,6.38l-.08-11.53ZM519.94,338.23c-1.6-.04-3.16.11-4.78-.11-28.6-3.96-56.95-10.36-85.58-14.19,1.31,24.09,5.8,48.16,2.72,72.39l84.95,17.92c-.9.1-2.05-.53-1.78.89l5.25-.09c2.25-25.19.39-50.89,1.02-76.26.1-.93-1.16-.51-1.81-.53ZM583.45,325.71h-.89v126.97h.89v-126.97ZM530.67,340.91v137.7l18.79,3.58c.25-48.53-.53-97.49.43-145.76-6.31,1.74-12.55,4.65-19.22,4.48ZM113.77,424.06c-.1-2.1-1-6.51-.72-8.3.97-6.18,15.01-7.82,19.08-11.34,1.29-1.12,6.75-10.53,5.78-11.65l-40.32,15.8-.74,10.94,16.91,4.55ZM630.86,453.58l-16.4-4.23-29.23,12.7c-1.97,1.63-.39,10.08-.88,12.97l46.51-21.45ZM485.05,506.33c-2.52,1.26-9.33,4.16-10.76,6.03-1.96,2.57-3.17,11.95-.25,13.47,4.32,2.25,14.28,2.66,19.06,5.53-.6-7.48,2.45-14.81,8.95-18.78,10.68-6.51,27.02-12.25,38.79-18.01,1.71-.84,4.23-1.59,5.05-3.44l-20.8-3.42c-12.96,6.97-26.91,12.06-40.04,18.62Z"/>
  <path class="st32" d="M342.04,538.05c32.87-18.68,60.83-49,75.7-85.03,1.22-2.95,6.64-20.36,7.76-20.56l94.4,21.26-.1,26.65-47.88,21.44c-4.27,2.12-6.8,5.15-9.24,9.1l-.2,2.04-.8,17.47c-8.57-2.45-19.1-10.96-28.08-10.96-13.99,0-36.9,13.18-50.56,18.7-29.45,11.89-89.81,35.81-120.28,33.06-.85-.08-4.13-.69-3.89-1.96,7.85-1.23,24.13-5.8,31.53-8.64,7.16-2.75,31.09-10.89,51.62-22.56Z"/>
  <path class="st13" d="M659.5,119.17c-2.6,2.33-6.58.17-9.4,0-43.7-2.43-87.32-3.99-131.06-6.27v-.89c39.78,2.11,79.69,2.57,119.42,5.37,6.05.43,15.63.47,21.03,1.78Z"/>
  <path class="st29" d="M672.92,270.28l3.33-8.74c2.44-36.59.68-73.81,1.13-110.63.02-1.51-.58-3.98.91-4.91-2.31,35.67,3.08,75.23.03,110.46-.45,5.21-2.32,9.67-5.4,13.83Z"/>
  <path class="st15" d="M76.2,236.3c-4.97-10.76-4.63-44.91-3.61-57.7.49-6.17,1.74-8.81,4.51-13.83-.51,3.79-2.35,6.2-2.72,10.25-1.43,15.64,1.16,33.37,0,49.25l1.82,12.04Z"/>
  <path class="st2" d="M131.67,270.28c2.24-1.83,7.8-.21,9.84,1.34v111.32h-.89c-.04-4.76.02-9.55,0-14.31-.19-31.73.14-63.49,0-95.23-.67-3.63-5.84-1.62-8.95-3.13Z"/>
  <path class="st37" d="M232.76,96.82l-.89.89c-12.21-.61-24.77-2.17-37.09-2.72-17.35-.78-31.89-3.39-47.89,4.07-.92.43-3.05,2.24-3.59.44,20.51-11.42,36.46-5.64,58.61-4.48,10.26.54,20.89,1.28,30.86,1.8Z"/>
  <path class="st16" d="M519.04,112.02v.89c-27.92-1.46-56.07-2.99-84.09-4.47l.89-.89c27.7,1.47,55.79,3.02,83.2,4.47Z"/>
  <path class="st3" d="M435.84,107.54l-.89.89c-23.49-1.24-47.43-3.25-70.68-4.47l2.68-.89c22.77,1.19,46.28,3.27,68.89,4.47Z"/>
  <path class="st18" d="M302.54,100.39v.89c-23.54-1.23-47.12-2.4-70.68-3.58l.89-.89c23.21,1.2,46.73,2.37,69.78,3.58Z"/>
  <path class="st19" d="M366.96,103.07l-2.68.89c-20.55-1.08-41.18-1.61-61.73-2.68v-.89c21.42,1.12,42.92,1.56,64.41,2.68Z"/>
  <path class="st38" d="M279.28,314.09c1.03,3.55,5.39,4.26,8.74,5.12,16.25,4.2,35.49,5.36,52.1,8.29,1.03,24.97,3.48,49.41-5.83,73.3-7.03,18.04-24.56,38.18-41.59,46.51-26.47,12.96-42.87,14.67-70.68,21-34.47,7.85-66.32,25.35-98.4,38.9-13.42-5.32-26.82-10.83-40.26-16.09,24.61-13.03,50.22-24.45,76.94-32.63,43.74-13.39,88.79-15.6,111.27-62.25,12.94-26.85,8.8-50.63,7.71-78.57-.05-1.19.03-2.39,0-3.58Z"/>
  <path class="st30" d="M279.28,317.67c1.09,27.94,5.23,51.72-7.71,78.57-22.48,46.65-67.53,48.86-111.27,62.25-26.72,8.18-52.33,19.6-76.94,32.63-16-6.26-32.44-11.77-48.31-18.34-.86-.35-2.05-.1-1.78-1.32,21.68-4.6,47.66-12.69,66.2-25.04-.39,4.01,3.53.3,4.97.05,51.31-9,112.26-28.97,119.37-89.03,1.93-16.29-.73-32.47-1.78-48.72,3.79-1.45,7.91-.31,11.82.26,15.01,2.17,30.24,7.02,45.44,8.68Z"/>
  <path class="st7" d="M579.88,292.63c-.5-12.9.41-25.87.56-38.74.15-13.07-.69-25.89.83-39,15.96-21.7,28.08-51.49,45.57-71.59,14.31-16.45,37.23-20.94,41.6,5.83-2.46,33.79,3.31,72.32.05,105.54-.72,7.32-7.68,14.24-14.2,17.11-15.63,6.88-44.13,13.04-61.7,17.91-4.13,1.15-8.56,1.85-12.71,2.93Z"/>
  <path class="st34" d="M340.12,327.5c16.86,2.98,36.87,8.92,53.52,10.43,2.44.22,4.52.96,3.74-2.38,0,.17.79.73.83,1.42,1.49,28.95,2.35,46.83-4.41,75.48-4.49,8.66-8.77,17.13-15.19,24.61-33.64,39.23-77.23,40.19-123.48,51.39-2.62.45-2.12-1.01-.32-1.5,4.35-1.17,10.82-1.45,15.56-2.49,5.76-1.27,8.89-2.79,14.63-3.27,5.55-.46,3.2-1.63,4.13-3.47.41-.82,2.85,1.65,3.96,1.72.85.05,10.92-2.15,11.25-2.62.43-.63-2.83-7.79,4.46-2.67l-5.59-5.64-5.13.27c1.81-4.33.73-7.9.9-12.51,6.11,2.78,7.48,4.35,4.47,10.72l6.25-1.78c-.37,3.14.15,5.66,2.29,8,.9.99.72,1.27,1.76.06l2.22-7.16c-3.65,1.03-3.22-1.16-4.54-2.13-.92-.67-2.6-.72-3.15-1.43-.83-1.06.55-2.86.1-3.65s-2.7-1.05-3.1-2.29c-.71-2.19,1.76-2.95,2.21-3.92,1.38-2.99-11.01-2.39-9.43,2.68l-8.03-1.78v3.57c2.28,1.07,1.52-1.76,2.3-1.85,1.96-.22,5.54,1.57,4.84,4.08-.46,1.67-7.09,1.72-8.9,2.22.33-2.94-2.78-3.66-2.57-6.45.28-3.66,2.67-1.84,4.1-2.66.41-.23,2.84-4.13,2.91-5.17,17.02-8.33,34.56-28.47,41.59-46.51,9.31-23.89,6.86-48.34,5.83-73.3Z"/>
  <path class="st43" d="M525.3,120.97c-2.78,2.73-5.87,5.13-8.51,8.03-4.5,4.94-8.09,12.36-12.07,16.54-.89.94-1.52,2.16-3.06,2.18-80.45-6.37-161.18-10.34-241.62-16.91l-77.38-4.49c6.87-7.11,18.67-21.73,29.04-22.4,104.61,6.16,208.99,11.49,313.6,17.05Z"/>
  <path class="st47" d="M171.93,267.59l1.88,31.21,48.22,8.13c.04.59-.04,1.2,0,1.79,1.05,16.25,3.71,32.43,1.78,48.72-7.11,60.06-68.06,80.02-119.37,89.03-1.43.25-5.36,3.96-4.97-.05.33-.22.88-1.17,1.79-1.79,14.95-2.53,29.05-12,40.27-21.89,30.97-27.29,35.41-68.01,33.08-107.3-1.01-17.08-4.76-29.9-2.68-47.84Z"/>
  <path class="st44" d="M393.79,412.44c-7.72,32.7-20.47,58.11-43.84,82.26-1.33-1.06-2.47-.18-3.77.19-8.17,2.33-16.03,5.68-24.14,8.13-36.52,11.03-67.11,13.61-99.03,36.93-1.69,1.23-4.43,2.48-4.57,4.82-14.78-5.91-29.86-11.95-44.73-17.88,10.03-4.96,18.18-12.63,27.81-18.26,16.41-9.59,35.17-15.72,53.61-20.19,46.26-11.2,89.84-12.16,123.48-51.39,6.41-7.48,10.7-15.95,15.19-24.61Z"/>
  <path class="st35" d="M570.04,223.78v63.93c0,3.47-10.31,8.46-13.91,6.74l-79.13-10.77c.17-9.08-.23-18.22-.05-27.31.05-2.55.92-4.72.97-7.07.2-8.29-1.38-22.22-.03-29.54.19-1.01.36-1.8,1.45-2.18l74.15,8.87c5.92.37,11.21.04,16.54-2.67Z"/>
  <path class="st39" d="M631.76,126.33c-24.46,20.85-36.92,51.8-55.1,77.7-3.68,5.25-8.82,13.48-16.02,13.5-26.88-3.68-53.99-6.75-80.97-8.96-1.92-1.97,11-22.58,13.05-25.85,3.86-6.18,8.45-11.89,12.37-18.03,9.78-15.33,21.03-43.19,43.04-42.91,2.31.03,4.32.91,6.25.95,25.82.54,51.54,2.91,77.38,3.59ZM520.94,165.55c13.03,1.52,26.17,3.05,39.3,3.29,2.87-.91,10.32-12.36,11.49-15.34,5.17-13.15-6.43-9.51-14.66-10.2-5.16-.43-16.76-2.76-21.08-1.38-3.91,1.24-17.35,20.21-15.05,23.63ZM584.09,148.86c-7.06,2.13-4.64,13.49,3.17,12.18,9.63-1.61,7.05-15.27-3.17-12.18ZM519.7,169.43c-1.51.46-3.2.9-4.55,1.73-2.72,1.67-12.88,17.88-12.7,20.9.19,3.26,2.7,4.9,5.64,5.56,6,1.34,17.68,2.6,23.93,2.9,2.78.14,7.65.47,10.07-.65l15.43-24-.39-2.23-37.43-4.22ZM577.85,174.83c-4.59-4.84-16.58.83-10.52,8.3,5.58,6.88,15.57-2.97,10.52-8.3ZM557.25,192.68c-4.49,1.32-6.04,10.29.77,11.37,12.26,1.95,10.95-14.82-.77-11.37Z"/>
  <path class="st39" d="M158.51,164.77l316.71,28.17c-2.82,5.91-5.3,11.91-6.73,18.33l-309.98-32.2v-14.31Z"/>
  <path class="st34" d="M292.7,447.31c-.06,1.04-2.5,4.94-2.91,5.17-1.43.81-3.82-1-4.1,2.66-.21,2.8,2.9,3.51,2.57,6.45,1.81-.49,8.44-.54,8.9-2.22.69-2.52-2.89-4.3-4.84-4.08-.79.09-.02,2.92-2.3,1.85v-3.57s8.03,1.78,8.03,1.78c-1.58-5.07,10.81-5.67,9.43-2.68-.45.97-2.91,1.73-2.21,3.92.4,1.24,2.65,1.52,3.1,2.29s-.92,2.59-.1,3.65c.55.71,2.23.76,3.15,1.43,1.32.97.88,3.16,4.54,2.13l-2.22,7.16c-1.04,1.21-.85.93-1.76-.06-2.14-2.34-2.66-4.87-2.29-8l-6.25,1.78c3.01-6.37,1.64-7.95-4.47-10.72-.17,4.61.91,8.19-.9,12.51l5.13-.27,5.59,5.64c-7.3-5.12-4.03,2.04-4.46,2.67-.33.48-10.4,2.67-11.25,2.62-1.11-.07-3.55-2.53-3.96-1.72-.92,1.84,1.42,3.01-4.13,3.47-5.74.48-8.87,2-14.63,3.27-4.74,1.04-11.21,1.32-15.56,2.49-1.8.48-2.3,1.95.32,1.5-18.44,4.47-37.2,10.6-53.61,20.19-9.62,5.62-17.78,13.3-27.81,18.26-16.65-6.64-33.44-13.07-50.1-19.67,32.08-13.55,63.93-31.05,98.4-38.9,27.81-6.33,44.21-8.05,70.68-21Z"/>
  <path class="st36" d="M417.05,254.18c-16.53,23.48-20.99,53.18-19.68,81.37.78,3.34-1.3,2.6-3.74,2.38-16.65-1.5-36.66-7.45-53.52-10.43-.86-20.86.34-37.15,10.91-55.71,3.51-6.16,14.39-20.67,20.4-23.87.59-.31,1.19-.61,1.79-.89,13.21,1.75,26.57,3.22,39.7,5.48,1.51.26,3.07.39,4.14,1.67Z"/>
  <path class="st39" d="M82.46,181.76c.55-9.67,2.64-12.51,8.49-19.68,12.31-15.11,43.35-48.13,60.06-56.21,14.08-6.81,28.35-2.51,43.28-2.78l-14.31,12.07-49.16,53.6c-10.03.51-23-3.62-32.64-2.14-5.9.91-5.06,5.3.16,6.88,8.22,2.48,21.03,1.75,29.75,2.9,1.1,1.09-.92,8.53-.9,9.84l-44.73-4.47Z"/>
  <path class="st31" d="M349.96,494.7c-17.92,18.52-39.58,33.18-62.02,45.76-7.96,4.46-26.7,15.24-34.58,17.32-2,.53-2.53.46-4.5-.02-8.52-2.06-21.71-9.51-30.41-12.99.14-2.34,2.88-3.58,4.57-4.82,31.92-23.32,62.52-25.9,99.03-36.93,8.11-2.45,15.97-5.81,24.14-8.13,1.29-.37,2.44-1.25,3.77-.19Z"/>
  <path class="st43" d="M530.67,340.91c6.67.16,12.91-2.74,19.22-4.48-.96,48.27-.18,97.23-.43,145.76l-18.79-3.58v-137.7Z"/>
  <path class="st28" d="M127.2,186.23c.24,15.72,1.48,31.94.94,47.87-.11,3.3-1.75,5.84-.04,9.35-7.1-.81-14.9-.89-21.91-1.79-11.52-1.47-18.29-1.79-22.35-14.33-2.71-8.37-1.93-35.62-1.37-45.58l44.73,4.47Z"/>
  <path class="st38" d="M407.21,227.36l7.15,2.67c-2.93.75-5.78,1.81-8.74,2.48-1.19.27-4.08.21-5.57.62-9.31,2.52-19.3,7.93-26.84,13.9-.6.29-1.2.58-1.79.89-.87-1.97-1.43-1.52-3.09-1.81-19.28-3.44-38.92-4.91-58.17-8.06-1.93-.32-3.12.95-1.36-1.75,9.34-7.43,13.76-11.11,25.78-14.97,1.49-.48,3.4.66,2.85-2.02,23.18,2.72,46.98,4.03,69.78,8.05Z"/>
  <path class="st25" d="M267.65,211.26c23.27,2.59,46.58,5.33,69.78,8.05.55,2.68-1.36,1.54-2.85,2.02-12.02,3.86-16.43,7.54-25.78,14.97-2.09,1.66-5.81,3.09-8.05,5.36l1.35-3.58-1.09-.7-53.94-8.24c6.95-6.4,14.58-13.08,24.15-15.21l-4.01-1.81.43-.86Z"/>
  <path class="st11" d="M267.65,211.26l-.43.86,4.01,1.81c-9.58,2.13-17.21,8.8-24.15,15.21-.38.35-1.38.49-1.79.89l-56.36-7.15c.24-.31.2-1.47.86-2.23,6.11-7.08,13.96-11.31,21.5-16.54,17.74.89,38.6,5.18,56.36,7.15Z"/>
  <path class="st1" d="M407.21,227.36l34.89,3.59c-3.07,3.08-7.33,4.78-10.75,7.58-4.61,3.77-10.87,10.78-14.3,15.66-1.07-1.29-2.63-1.41-4.14-1.67-13.13-2.26-26.49-3.73-39.7-5.48,7.54-5.97,17.53-11.38,26.84-13.9,1.49-.4,4.38-.35,5.57-.62,2.97-.67,5.81-1.73,8.74-2.48l-7.15-2.67Z"/>
  <path class="st24" d="M485.05,506.33c13.13-6.56,27.08-11.65,40.04-18.62l20.8,3.42c-.82,1.85-3.34,2.6-5.05,3.44-11.76,5.77-28.11,11.5-38.79,18.01-1.05-1.13,1.07-1.22-1.27-1.83-5.18-1.36-10.81-2.03-15.73-4.42Z"/>
  <path class="st23" d="M468,266.74c.19,8.73-1.4,17.18.04,25.88l-25.94-4.47c1.9-8.38,2.98-16.4,7.29-24.01l18.62,2.6Z"/>
  <path class="st8" d="M184.45,203.22c.51,2.06-.38,1.47-1.13,2.04-10.75,8.3-17.18,17.95-21.25,31.04l-18.77-1.8c9.64-13.95,21.15-34.89,41.15-31.28Z"/>
  <path class="st14" d="M137.04,224.68v-44.26c0-.83,1.45-3.94,1.14-5.59l8.69-9.16c1.7,3.17-.04,5.56-.08,8.5-.14,12.04,1.11,24.94.18,36.76-.1,1.31.84,2.44.36,3.88-.54,1.63-5.72,7.64-7.23,8.92-1.13.96-1.42,1.23-3.07.96Z"/>
  <path class="st28" d="M113.77,424.06l-16.91-4.55.74-10.94,40.32-15.8c.96,1.11-4.49,10.53-5.78,11.65-4.07,3.52-18.11,5.16-19.08,11.34-.28,1.79.61,6.2.72,8.3Z"/>
  <path class="st17" d="M630.86,453.58l-46.51,21.45c.49-2.89-1.09-11.34.88-12.97l29.23-12.7,16.4,4.23Z"/>
  <path class="st10" d="M534.16,307.92l.08,11.53c-13.04-2.22-26.31-3.58-39.24-6.38l-.11-11.5,39.27,6.34Z"/>
  <path class="st0" d="M485.05,506.33c4.91,2.39,10.54,3.06,15.73,4.42,2.34.62.22.71,1.27,1.83-6.5,3.97-9.56,11.29-8.95,18.78-4.78-2.88-14.73-3.28-19.06-5.53-2.92-1.52-1.71-10.9.25-13.47,1.43-1.87,8.24-4.77,10.76-6.03Z"/>
  <path class="st9" d="M186.24,136.16c5.08-2.35,11.51-.32,16.56,0,21.48,1.31,43.05,1.99,64.41,4.47l74.69,4.49c-.18,1.65-4.07.86-5.36.89-8.89.2-17.57-1.23-26.4-1.78-41.29-2.55-82.58-5.49-123.9-8.06Z"/>
  <path class="st27" d="M415.26,278.32c-2.24,7.31-4.73,14.57-6,22.17-3.13,18.77-.65,29.99.63,48.03,1.77,25.16-.6,51.18-7.15,75.55-1.71-.87-.58-3.01-.31-4.32,2.81-13.41,5.88-27.03,6.61-40.8,1.79-34.09-9.2-68.35,5.34-101.52l.88.89Z"/>
  <path class="st33" d="M519.94,338.23c.64.02,1.91-.39,1.81.53-.63,25.37,1.23,51.07-1.02,76.26l-5.25.09c-.26-1.42.88-.78,1.78-.89s1.81.09,2.69,0v-76.01Z"/>
  <rect class="st5" x="582.56" y="325.71" width=".89" height="126.97"/>
  <path class="st13" d="M172.82,232.72c-10.27,22.22-10.28,44.19-8.95,67.95-2.7.5-1.73-1.36-1.79-3.09-.9-24.32-.16-40.53,9.1-63.38.25-.62.85-3.69,1.64-1.48Z"/>
  <path class="st41" d="M308.8,236.3c-1.75,2.7-.57,1.44,1.36,1.75,19.25,3.15,38.89,4.62,58.17,8.06,1.65.29,2.22-.16,3.09,1.81-6.01,3.2-16.89,17.71-20.4,23.87-10.57,18.56-11.77,34.85-10.91,55.71-16.6-2.93-35.85-4.08-52.1-8.29-3.35-.87-7.71-1.57-8.74-5.12-.71-24.39,3.56-54.23,21.47-72.42,2.24-2.28,5.96-3.7,8.05-5.36Z"/>
  <path class="st46" d="M300.75,241.66c-17.91,18.19-22.18,48.04-21.47,72.42.03,1.19-.05,2.39,0,3.58-15.2-1.67-30.43-6.52-45.44-8.68-3.91-.56-8.03-1.71-11.82-.26-.04-.59.04-1.2,0-1.79-1.7-28.02,2.27-56.31,23.26-76.9.41-.4,1.41-.54,1.79-.89l53.94,8.24,1.09.7-1.35,3.58Z"/>
  <path class="st26" d="M245.29,230.04c-20.99,20.58-24.96,48.88-23.26,76.9l-48.22-8.13-1.88-31.21c1.89-16.26,7.01-31.86,17-44.71l56.36,7.15Z"/>
  <path class="st42" d="M519.7,169.43l37.43,4.22.39,2.23-15.43,24c-2.42,1.12-7.29.78-10.07.65-6.25-.3-17.93-1.56-23.93-2.9-2.94-.66-5.45-2.3-5.64-5.56-.18-3.02,9.98-19.22,12.7-20.9,1.35-.83,3.04-1.27,4.55-1.73ZM512.78,188.91l23.54,1.62c1.49-.41,5.99-7.76,5.96-8.33-.04-.63-1.46-1.2-2.22-1.33-3.09-.53-18.41-2.24-20.41-1.62-.64.2-1.14.6-1.54,1.14l-5.33,8.52Z"/>
  <path class="st40" d="M584.09,148.86c10.22-3.09,12.8,10.58,3.17,12.18-7.81,1.3-10.22-10.05-3.17-12.18Z"/>
  <path class="st6" d="M557.25,192.68c11.72-3.45,13.03,13.32.77,11.37-6.81-1.08-5.26-10.05-.77-11.37Z"/>
  <path class="st22" d="M577.85,174.83c5.05,5.33-4.95,15.17-10.52,8.3-6.06-7.47,5.93-13.14,10.52-8.3Z"/>
  <path class="st45" d="M512.78,188.91l5.33-8.52c.4-.54.9-.94,1.54-1.14,2-.62,17.31,1.1,20.41,1.62.76.13,2.18.7,2.22,1.33.03.57-4.47,7.92-5.96,8.33l-23.54-1.62Z"/>
  <path class="st42" d="M537.49,138.21l39.95,4.34.42,2.29-16.47,24.68c-2.59,1.16-7.78.81-10.75.67-6.67-.31-19.14-1.6-25.54-2.99-3.14-.68-5.81-2.37-6.02-5.72-.19-3.11,10.66-19.77,13.56-21.49,1.44-.85,3.24-1.31,4.85-1.78ZM530.11,158.24l25.12,1.67c1.59-.42,6.39-7.98,6.36-8.57-.04-.65-1.55-1.24-2.37-1.37-3.3-.54-19.64-2.31-21.78-1.67-.69.21-1.22.62-1.64,1.17l-5.69,8.77Z"/>
  <path class="st4" d="M529.72,158.46l5.84-9.75c.43-.61.98-1.07,1.69-1.3,2.19-.71,18.97,1.25,22.36,1.86.84.15,2.39.8,2.43,1.52.04.65-4.9,9.06-6.53,9.53l-25.79-1.86Z"/>
  <text class="st20" transform="translate(61.36 585.74)"><tspan x="0" y="0">PRIME WRAPS</tspan></text>
  <text class="st21" transform="translate(136.67 642.21)"><tspan x="0" y="0">EVENT DECOR &amp; MORE</tspan></text>
</svg>